# Blender v2.77 (sub 0) OBJ File: 'map.blend'
# www.blender.org
mtllib map.mtl
o Plane
v -1.000000 0.000000 1.000000
v 1.000000 0.000000 1.000000
v -1.000000 0.000000 -1.000000
v 1.000000 0.000000 -1.000000
v 3.000000 0.000000 1.000000
v 3.000000 0.000000 -1.000000
v 5.000000 0.000000 1.000000
v 5.000000 0.000000 -1.000000
v -3.000000 0.000000 1.000000
v -3.000000 0.000000 -1.000000
v -5.000000 0.000000 1.000000
v -5.000000 0.000000 -1.000000
v -1.000000 0.000000 -3.000000
v 1.000000 0.000000 -3.000000
v 3.000000 0.000000 -3.000000
v 5.000000 0.000000 -3.000000
v -3.000000 0.000000 -3.000000
v -5.000000 0.000000 -3.000000
v -1.000000 0.000000 3.000000
v 1.000000 0.000000 3.000000
v 3.000000 0.000000 3.000000
v 5.000000 0.000000 3.000000
v -3.000000 0.000000 3.000000
v -5.000000 0.000000 3.000000
v -1.000000 0.000000 -5.000000
v 1.000000 0.000000 -5.000000
v 3.000000 0.000000 -5.000000
v 5.000000 0.000000 -5.000000
v -3.000000 0.000000 -5.000000
v -5.000000 0.000000 -5.000000
v -1.000000 0.000000 5.000000
v 1.000000 0.000000 5.000000
v 3.000000 0.000000 5.000000
v 5.000000 0.000000 5.000000
v -3.000000 0.000000 5.000000
v -5.000000 0.000000 5.000000
vn 0.0000 1.0000 0.0000
usemtl None
s off
f 2//1 3//1 1//1
f 2//1 6//1 4//1
f 5//1 8//1 6//1
f 3//1 9//1 1//1
f 10//1 11//1 9//1
f 6//1 14//1 4//1
f 3//1 17//1 10//1
f 8//1 15//1 6//1
f 10//1 18//1 12//1
f 4//1 13//1 3//1
f 1//1 20//1 2//1
f 9//1 19//1 1//1
f 5//1 22//1 7//1
f 11//1 23//1 9//1
f 2//1 21//1 5//1
f 13//1 29//1 17//1
f 15//1 26//1 14//1
f 17//1 30//1 18//1
f 16//1 27//1 15//1
f 14//1 25//1 13//1
f 23//1 31//1 19//1
f 20//1 33//1 21//1
f 24//1 35//1 23//1
f 21//1 34//1 22//1
f 19//1 32//1 20//1
f 2//1 4//1 3//1
f 2//1 5//1 6//1
f 5//1 7//1 8//1
f 3//1 10//1 9//1
f 10//1 12//1 11//1
f 6//1 15//1 14//1
f 3//1 13//1 17//1
f 8//1 16//1 15//1
f 10//1 17//1 18//1
f 4//1 14//1 13//1
f 1//1 19//1 20//1
f 9//1 23//1 19//1
f 5//1 21//1 22//1
f 11//1 24//1 23//1
f 2//1 20//1 21//1
f 13//1 25//1 29//1
f 15//1 27//1 26//1
f 17//1 29//1 30//1
f 16//1 28//1 27//1
f 14//1 26//1 25//1
f 23//1 35//1 31//1
f 20//1 32//1 33//1
f 24//1 36//1 35//1
f 21//1 33//1 34//1
f 19//1 31//1 32//1
